# xmcd CD database file
#
# Track frame offsets:
#	150
#	24152
#	43005
#	59920
#	77207
#	96560
#	113795
#	130907
#	149652
#	171522
#	193452
#	206805
#	224500
#	245120
#	263212
#	282772
#	298807
#	314687
#
# Disc length: 4496 seconds
#
# Revision: 3
# Processed by: cddbd v1.5.2PL0 Copyright (c) Steve Scherf et al.
# Submitted via: CDex 1.70beta2
#
DISCID=3b118e12
DTITLE=シブがき隊 - GOLDEN J-POP/THE BEST Disc 2
DYEAR=1998
DGENRE=Pop
TTITLE0=Together!SHIBUGAKI
TTITLE1=飛んで火に入る夏の令嬢
TTITLE2=千夜一夜キッス倶楽部
TTITLE3=恋人達のBlvd.
TTITLE4=ドリーム・ラッシュ
TTITLE5=反逆のアジテイション
TTITLE6=演歌なんて歌えない
TTITLE7=PSST PSST
TTITLE8=恋するような友情を
TTITLE9=君を忘れない
TTITLE10=青春レクイエム
TTITLE11=ストレイ ボーイ
TTITLE12=告白～愛する人へ～
TTITLE13=100万粒の涙
TTITLE14=MIDNIGHT 2 CALL
TTITLE15=ヴァージン・ショックII
TTITLE16=哀しみのLast Summer
TTITLE17=ラスト・ナンバー
EXTD=YEAR: 1998
EXTT0=
EXTT1=
EXTT2=
EXTT3=
EXTT4=
EXTT5=
EXTT6=
EXTT7=
EXTT8=
EXTT9=
EXTT10=
EXTT11=
EXTT12=
EXTT13=
EXTT14=
EXTT15=
EXTT16=
EXTT17=
PLAYORDER=
